# xmcd CD database file
#
# Track frame offsets:
#	150
#	29950
#	46560
#	66275
#	84430
#	105015
#	119160
#	142812
#
# Disc length: 2294 seconds
#
# Revision: 0
# Processed by: cddbd v1.5PL3 Copyright (c) Steve Scherf et al.
# Submitted via: CDex 1.51
#
DISCID=6408f408
DTITLE=福間未紗 - モールス
DYEAR=1900
DGENRE=Pop
TTITLE0=押し花
TTITLE1=シンクロ　ウインド
TTITLE2=マイクロチップ
TTITLE3=ねこじた
TTITLE4=ダンダン
TTITLE5=ｔａｋｅ５
TTITLE6=見つける
TTITLE7=エンドレスフラワーズ
EXTD=
EXTT0=
EXTT1=
EXTT2=
EXTT3=
EXTT4=
EXTT5=
EXTT6=
EXTT7=
PLAYORDER=
